# xmcd
#
# Track frame offsets: 
#        150
#        12204
#        24813
#        37013
#        49165
#        61075
#        70628
#        84963
#        97259
#        109305
#
# Disc length: 1577 seconds
#
# Revision: 2
# Processed by: cddbd v1.5.1PL2 Copyright (c) Steve Scherf et al.
# Submitted via: ExactAudioCopy v0.95a5
#
DISCID=7606270a
DTITLE=Various Artist - Winning Combinations
DYEAR=2003
DGENRE=Bluegrass
TTITLE0=Flatt and Scruggs - Foggy Mountain Breakdown
TTITLE1=Flatt and Scruggs - Doin' My Time
TTITLE2=Flatt and Scruggs - We'll Meet Again Sweetheart
TTITLE3=Flatt and Scruggs - My Little Girl In Tennessee
TTITLE4=Bill Monroe - Blue Moon Of Kentucky
TTITLE5=Bill Monroe - In The Pines
TTITLE6=Bill Monroe - In The Pines
TTITLE7=Bill Monroe - Uncle Pen
TTITLE8=Bill Monroe - Footprints In The Snow
TTITLE9=Bill Monroe - Rocky Road Blues
EXTD=
EXTT0=
EXTT1=
EXTT2=
EXTT3=
EXTT4=
EXTT5=
EXTT6=
EXTT7=
EXTT8=
EXTT9=
PLAYORDER=
